<?xml version="1.0" encoding="UTF-8" standalone="no"?>
<!-- Created with Inkscape (http://www.inkscape.org/) -->

<svg
   width="1000"
   height="1000"
   viewBox="0 0 264.58333 264.58334"
   version="1.1"
   id="svg2800"
   inkscape:version="1.1.1 (3bf5ae0d25, 2021-09-20)"
   sodipodi:docname="PlayerVCIcon.svg"
   inkscape:export-filename="C:\Users\qphys\Code\RoundsVC\Assets\RoundsVC\Assets\Prefabs\PlayerVCIcon.png"
   inkscape:export-xdpi="192"
   inkscape:export-ydpi="192"
   xmlns:inkscape="http://www.inkscape.org/namespaces/inkscape"
   xmlns:sodipodi="http://sodipodi.sourceforge.net/DTD/sodipodi-0.dtd"
   xmlns="http://www.w3.org/2000/svg"
   xmlns:svg="http://www.w3.org/2000/svg">
  <sodipodi:namedview
     id="namedview2802"
     pagecolor="#505050"
     bordercolor="#ffffff"
     borderopacity="1"
     inkscape:pageshadow="0"
     inkscape:pageopacity="0"
     inkscape:pagecheckerboard="1"
     inkscape:document-units="px"
     showgrid="false"
     units="px"
     width="1000px"
     inkscape:zoom="0.58831284"
     inkscape:cx="366.30171"
     inkscape:cy="563.47572"
     inkscape:window-width="1920"
     inkscape:window-height="1017"
     inkscape:window-x="-8"
     inkscape:window-y="-8"
     inkscape:window-maximized="1"
     inkscape:current-layer="layer1" />
  <defs
     id="defs2797" />
  <g
     inkscape:label="Layer 1"
     inkscape:groupmode="layer"
     id="layer1">
    <path
       id="path2485-6"
       style="fill:#cccccc;fill-opacity:0.5;stroke-width:0.264583"
       d="m 121.32617,48.279297 c -4.30062,0.339694 -7.9452,3.043655 -10.88964,6.005592 -18.702801,17.389412 -37.405603,34.778824 -56.108405,52.168231 -9.577663,0.10461 -19.197047,-0.3753 -28.734251,0.70763 -8.668326,1.786 -15.424818,10.25346 -15.141152,19.11696 -0.341833,13.54204 -0.368998,27.0936 -0.0424,40.63604 0.121522,2.51104 0.107207,5.06259 0.681333,7.52099 1.873331,7.33336 8.367203,13.43386 15.965142,14.30067 4.218407,0.3255 8.45334,0.084 12.67832,0.22791 4.810952,0.0409 9.621904,0.0817 14.432856,0.12262 20.051463,18.8718 39.982844,37.8758 60.225631,56.54013 2.42706,2.08641 5.75649,3.31015 8.95508,2.62954 4.56762,-0.48414 8.89855,-3.26458 10.95241,-7.41933 1.59052,-2.98909 1.90192,-6.47898 1.58748,-9.8023 -0.0416,-56.1942 0.0496,-112.38909 -0.23226,-168.582672 -0.0773,-3.695705 -1.02958,-7.643392 -3.82417,-10.250277 -2.72206,-2.736538 -6.66448,-4.167342 -10.50597,-3.921734 z m 56.23828,17.416015 c -8.03507,0.266859 -15.01996,7.639378 -14.99004,15.652712 -0.0961,6.853655 4.72821,13.276621 11.1209,15.540648 7.08805,3.104845 13.53021,7.598298 18.943,13.119468 7.22349,7.48976 12.42383,17.01316 14.57849,27.23209 1.14627,5.76615 1.2538,11.67897 0.69793,17.49716 -1.25596,11.60815 -6.73155,22.68152 -14.74331,31.16587 -5.84057,6.24814 -13.13266,11.08479 -20.95462,14.43072 -4.32394,2.04994 -8.04362,5.82889 -9.13557,10.59031 -1.68252,6.57716 1.17037,14.23334 7.1422,17.65128 5.05409,3.00407 11.63026,2.84062 16.75357,0.0878 18.92376,-8.41808 34.94131,-23.39218 44.20532,-41.95934 7.08987,-14.0977 10.1481,-30.1774 8.73341,-45.89566 -1.39588,-16.26826 -7.47025,-32.1389 -17.48621,-45.054288 -9.70082,-12.647397 -22.74305,-22.800979 -37.58036,-28.698292 -2.32395,-0.864371 -4.79186,-1.4447 -7.28471,-1.360438 z m -19.52343,37.636718 c -7.99158,0.15333 -14.99212,7.43722 -15.03125,15.39258 -0.12302,3.49099 0.96873,6.99054 3.05646,9.79107 1.79402,2.48323 4.31164,4.3905 7.11987,5.587 2.91263,1.55781 5.89545,3.62788 7.43352,6.71421 1.51647,2.67161 2.15643,5.9877 1.771,8.93311 -0.67057,4.93335 -4.16904,9.16234 -8.53518,11.38688 -2.05845,0.99183 -4.08623,2.10371 -5.768,3.67478 -2.70308,2.37331 -4.49514,5.72654 -4.93766,9.29823 -0.85619,6.20706 2.14504,12.93179 7.70351,15.99541 4.90198,2.86721 11.24666,2.72237 16.2023,0.0581 13.59134,-6.1381 23.85465,-19.13705 26.58894,-33.80788 2.34947,-12.10603 -0.55623,-25.06787 -7.67222,-35.11807 -4.2199,-6.04651 -9.95234,-10.96452 -16.36695,-14.55755 -3.55272,-1.88885 -7.46799,-3.4865 -11.56434,-3.34782 z" />
    <path
       style="fill:#000000;stroke-width:0.264583;fill-opacity:0.5"
       d="m 120.38072,238.22977 c -0.70437,-0.42953 -4.73909,-4.17132 -14.27457,-13.23819 -1.31356,-1.24901 -4.23059,-4.00474 -6.482292,-6.12384 -11.155916,-10.49899 -21.055348,-19.8364 -25.128381,-23.70175 -1.382448,-1.31196 -5.659313,-5.35247 -9.504143,-8.9789 l -6.990604,-6.59351 -15.366688,-0.13229 -15.366689,-0.1323 -1.581731,-0.77538 c -2.846135,-1.3952 -4.730423,-3.7475 -5.56328,-6.94505 -0.591508,-2.27096 -0.591508,-45.25901 0,-47.52996 0.790203,-3.0338 2.324987,-5.13449 4.775748,-6.53667 2.604577,-1.49019 3.583089,-1.57099 19.086965,-1.57605 l 14.07187,-0.005 17.281255,-16.052949 c 9.50469,-8.829125 19.007661,-17.660385 21.117713,-19.625025 2.110052,-1.964637 4.491307,-4.181726 5.291667,-4.926864 0.80036,-0.745136 3.24115,-3.008105 5.42396,-5.028818 2.18281,-2.020713 5.57609,-5.185832 7.54062,-7.033597 4.79771,-4.512546 5.68947,-5.22787 6.77001,-5.430582 1.99287,-0.373864 3.74402,0.52155 4.44469,2.272698 0.38988,0.974399 0.42697,8.635172 0.42697,88.185897 v 87.11879 l -0.59531,1.16096 c -1.01263,1.97481 -3.5496,2.74281 -5.37778,1.62798 z m 57.16996,-16.98443 c -1.68501,-0.27084 -2.91582,-0.93816 -3.94243,-2.13752 -1.6622,-1.94191 -1.97683,-4.68202 -0.80713,-7.0293 0.85265,-1.71104 1.7588,-2.39539 5.17793,-3.91048 11.81507,-5.23551 22.15059,-13.94123 29.20806,-24.60226 5.32668,-8.04649 8.51421,-16.33063 10.0946,-26.23512 0.6507,-4.07802 0.65844,-13.60292 0.0146,-17.98392 -2.65544,-18.06919 -12.64081,-33.93129 -28.23625,-44.854261 -3.02898,-2.121482 -11.76857,-6.841612 -12.66763,-6.841612 -0.11343,0 -0.76497,-0.370091 -1.44787,-0.822428 -4.05797,-2.687886 -3.63899,-8.946205 0.73529,-10.983076 2.47636,-1.15311 4.51061,-0.806096 9.55083,1.629232 17.8151,8.607883 31.87302,23.095825 39.29907,40.501205 4.19933,9.84251 6.15941,19.42079 6.16622,30.13236 0.003,4.57165 -0.14856,6.78222 -0.78856,11.50938 -2.03477,15.02905 -9.68935,30.49778 -20.90341,42.24254 -2.22768,2.3331 -5.62267,5.36155 -8.83144,7.87795 -4.71505,3.69766 -8.01469,5.76183 -13.99708,8.75622 -5.14708,2.57628 -6.67674,3.06421 -8.6248,2.75109 z M 157.4999,182.60318 c -1.46602,-0.3322 -2.38413,-0.87472 -3.35866,-1.98466 -1.18263,-1.34693 -1.59473,-2.45191 -1.58787,-4.25759 0.0115,-3.01717 1.34006,-4.71304 5.09411,-6.50224 4.22888,-2.01553 7.77084,-5.00184 10.22555,-8.6214 4.75181,-7.00675 5.51233,-15.72022 2.02368,-23.18574 -1.38817,-2.97059 -2.32768,-4.37121 -4.46408,-6.65503 -2.24594,-2.40091 -4.23033,-3.86344 -7.53882,-5.55622 -3.16864,-1.62123 -4.0487,-2.33862 -4.81776,-3.92728 -1.15645,-2.38892 -0.32849,-6.12665 1.69984,-7.67373 1.9418,-1.48109 4.13191,-1.7851 6.64098,-0.92185 5.31605,1.82899 12.30954,7.27412 16.47865,12.8303 1.56811,2.08982 4.49241,7.85626 5.29996,10.45104 5.3308,17.1285 -2.05989,35.18213 -17.95728,43.86524 -3.65632,1.99707 -5.77757,2.58347 -7.7383,2.13916 z"
       id="path2485" />
  </g>
</svg>
